<svg version="1.1" viewBox="0.0 0.0 718.1102362204724 113.38582677165354" fill="none" stroke="none" stroke-linecap="square" stroke-miterlimit="10" xmlns:xlink="http://www.w3.org/1999/xlink" xmlns="http://www.w3.org/2000/svg"><clipPath id="gbb27e19e72_0_0.0"><path d="m0 0l718.1102 0l0 113.385826l-718.1102 0l0 -113.385826z" clip-rule="nonzero"/></clipPath><g clip-path="url(#gbb27e19e72_0_0.0)"><path fill="#ffffff" d="m0 0l718.1102 0l0 113.385826l-718.1102 0z" fill-rule="evenodd"/><path fill="#000000" fill-opacity="0.0" d="m-10.047244 -34.708862l728.1575 0l0 161.6063l-728.1575 0z" fill-rule="evenodd"/><path fill="#002342" d="m94.36749 53.868637q-1.78125 0.171875 -3.15625 0.40625q-1.375 0.234375 -3.4375 0.921875q-2.34375 0.734375 -3.09375 2.453125q-0.734375 1.71875 -0.734375 3.609375l0 9.453125q0 2.875 0.046875 4.625q0.0625 1.734375 0.171875 4.3125q-5.71875 3.4375 -16.921875 6.484375q-11.203129 3.03125 -20.593754 3.03125q-8.828125 0 -16.5625 -2.6875q-7.734375 -2.703125 -13.578125 -8.078125q-5.843749 -5.328125 -9.203124 -13.234375q-3.34375 -7.90625 -3.34375 -18.109375q0 -9.515625 3.15625 -17.578125q3.15625 -8.078125 9.109374 -13.921875q5.84375 -5.796875 14.234375 -8.9375q8.390625 -3.1562502 18.59375 -3.1562502q6.9375 0 12.828125 1.6875002q5.906254 1.6875 9.734379 3.640625l3.5625 -3.15625l4.984375 0l0.515625 29.671875l-5.046875 0q-4.359375 -13.34375 -10.4375 -19.8125q-6.062504 -6.46875 -15.343754 -6.46875q-11.0 0 -16.984375 9.625q-5.984375 9.609375 -5.984375 26.515625q0 17.9375 5.875 28.078125q5.875 10.140625 16.640625 10.140625q5.046875 0 8.96875 -1.515625q3.921875 -1.53125 6.093754 -3.53125l0 -16.5q0 -2.0625 -0.7500038 -3.46875q-0.734375 -1.40625 -2.96875 -2.4375q-1.71875 -0.796875 -4.296875 -1.3125q-2.578125 -0.515625 -4.296875 -0.75l0 -4.46875l42.218754 0l0 4.46875zm60.60518 -13.28125q0 4.34375 -2.6875 7.640625q-2.6875 3.296875 -7.09375 3.296875q-4.1875 0 -7.078125 -2.109375q-2.890625 -2.125 -2.890625 -6.25q0 -2.015625 0.28125 -3.125q0.28125 -1.125 0.515625 -2.09375q-2.640625 0.109375 -5.5625 1.828125q-2.921875 1.71875 -5.15625 4.59375l0 31.453125q0 2.0 0.625 3.328125q0.640625 1.3125 2.125 2.046875q1.265625 0.640625 4.09375 1.078125q2.84375 0.421875 4.109375 0.46875l0 4.1875l-38.328125 0l0 -4.1875q1.421875 -0.109375 2.875 -0.3125q1.46875 -0.203125 2.5 -0.546875q1.84375 -0.625 2.53125 -1.9375q0.6875 -1.328125 0.6875 -3.4375l0 -33.34375q0 -2.0625 -0.984375 -3.6875q-0.96875 -1.640625 -2.34375 -2.625q-1.03125 -0.6875 -2.609375 -1.140625q-1.578125 -0.453125 -3.46875 -0.625l0 -4.1875l27.328125 -1.484375l0.859375 0.859375l0 8.296875l0.234375 0q3.953125 -4.578125 8.390625 -7.1875q4.4375 -2.609375 9.25 -2.609375q5.328125 0 8.5625 3.296875q3.234375 3.296875 3.234375 8.515625zm65.544174 32.65625q-2.0 3.265625 -4.84375 6.15625q-2.828125 2.890625 -6.4375 4.953125q-3.84375 2.171875 -7.765625 3.28125q-3.921875 1.125 -9.015625 1.125q-8.484375 0 -14.640625 -2.40625q-6.15625 -2.40625 -10.171875 -6.46875q-4.015625 -4.0625 -6.0 -9.59375q-1.96875 -5.53125 -1.96875 -12.0q0 -5.84375 2.140625 -11.203125q2.15625 -5.359375 6.109375 -9.546875q3.90625 -4.0625 9.828125 -6.578125q5.9375 -2.53125 13.265625 -2.53125q8.015625 0 13.171875 1.953125q5.15625 1.953125 8.546875 5.390625q3.25 3.265625 4.734375 7.703125q1.5 4.4375 1.5 9.3125l0 3.71875l-38.71875 0q0 11.75 4.515625 17.875q4.53125 6.125 14.390625 6.125q5.375 0 9.671875 -2.9375q4.296875 -2.953125 7.328125 -7.484375l4.359375 3.15625zm-21.875 -21.78125q0 -3.4375 -0.34375 -7.046875q-0.34375 -3.609375 -1.203125 -5.890625q-0.984375 -2.703125 -2.671875 -4.078125q-1.6875 -1.375 -4.265625 -1.375q-4.40625 0 -7.046875 4.46875q-2.640625 4.46875 -2.859375 14.15625l18.390625 -0.234375zm88.96057 21.78125q-2.0 3.265625 -4.84375 6.15625q-2.828125 2.890625 -6.4375 4.953125q-3.84375 2.171875 -7.765625 3.28125q-3.921875 1.125 -9.015625 1.125q-8.484375 0 -14.640625 -2.40625q-6.15625 -2.40625 -10.171875 -6.46875q-4.015625 -4.0625 -6.0 -9.59375q-1.96875 -5.53125 -1.96875 -12.0q0 -5.84375 2.140625 -11.203125q2.15625 -5.359375 6.109375 -9.546875q3.90625 -4.0625 9.828125 -6.578125q5.9375 -2.53125 13.265625 -2.53125q8.015625 0 13.171875 1.953125q5.15625 1.953125 8.546875 5.390625q3.25 3.265625 4.734375 7.703125q1.5 4.4375 1.5 9.3125l0 3.71875l-38.71875 0q0 11.75 4.515625 17.875q4.53125 6.125 14.390625 6.125q5.375 0 9.671875 -2.9375q4.296875 -2.953125 7.328125 -7.484375l4.359375 3.15625zm-21.875 -21.78125q0 -3.4375 -0.34375 -7.046875q-0.34375 -3.609375 -1.203125 -5.890625q-0.984375 -2.703125 -2.671875 -4.078125q-1.6875 -1.375 -4.265625 -1.375q-4.40625 0 -7.046875 4.46875q-2.640625 4.46875 -2.859375 14.15625l18.390625 -0.234375zm102.99182 35.46875l-34.484375 0l0 -4.1875q1.09375 -0.109375 2.640625 -0.28125q1.546875 -0.171875 2.34375 -0.578125q1.203125 -0.625 1.71875 -1.828125q0.515625 -1.203125 0.515625 -3.546875l0 -26.8125q0 -5.84375 -2.15625 -8.796875q-2.140625 -2.953125 -6.3125 -2.953125q-2.296875 0 -4.28125 0.6875q-1.96875 0.6875 -3.859375 2.0q-1.65625 1.15625 -2.671875 2.359375q-1.0 1.203125 -1.6875 2.109375l0 30.765625q0 2.015625 0.578125 3.359375q0.578125 1.34375 1.890625 2.03125q0.921875 0.515625 2.296875 0.921875q1.375 0.390625 2.6875 0.5625l0 4.1875l-34.828125 0l0 -4.1875q1.421875 -0.109375 2.875 -0.3125q1.46875 -0.203125 2.5 -0.546875q1.84375 -0.625 2.53125 -1.9375q0.6875 -1.328125 0.6875 -3.4375l0 -33.34375q0 -1.78125 -0.921875 -3.5q-0.921875 -1.71875 -2.40625 -2.8125q-1.03125 -0.6875 -2.609375 -1.140625q-1.578125 -0.453125 -3.46875 -0.625l0 -4.1875l27.328125 -1.484375l0.859375 0.859375l0 8.296875l0.234375 0q1.609375 -1.421875 3.890625 -3.421875q2.296875 -2.015625 4.25 -3.28125q2.109375 -1.375 5.546875 -2.34375q3.4375 -0.96875 7.34375 -0.96875q9.328125 0 14.0 5.296875q4.671875 5.296875 4.671875 14.0625l0 28.078125q0 2.109375 0.625 3.375q0.625 1.265625 2.34375 2.0q0.921875 0.40625 2.265625 0.8125q1.34375 0.390625 3.0625 0.5625l0 4.1875zm69.84924 2.171875q-7.453125 0 -13.90625 -1.828125q-6.4375 -1.828125 -10.90625 -4.359375l-3.953125 4.015625l-4.875 0l-0.734375 -29.390625l4.921875 0q1.65625 4.1875 4.234375 8.828125q2.578125 4.640625 5.96875 8.296875q3.484375 3.84375 7.8125 6.25q4.328125 2.40625 10.109375 2.40625q7.796875 0 11.953125 -3.8125q4.15625 -3.8125 4.15625 -9.59375q0 -4.75 -3.53125 -7.984375q-3.515625 -3.25 -10.90625 -5.59375q-4.8125 -1.546875 -8.859375 -2.859375q-4.03125 -1.328125 -7.59375 -2.703125q-8.1875 -3.265625 -12.171875 -9.328125q-3.984375 -6.078125 -3.984375 -13.578125q0 -4.75 2.0625 -9.125q2.0625 -4.390625 6.015625 -7.890625q3.78125 -3.265625 9.6875 -5.328125q5.90625 -2.0625002 12.828125 -2.0625002q6.765625 0 12.65625 1.8593752q5.90625 1.859375 9.296875 3.75l3.484375 -3.4375l4.984375 0l0.453125 27.734375l-4.921875 0q-1.71875 -4.46875 -4.046875 -9.140625q-2.3125 -4.671875 -4.890625 -7.765625q-2.796875 -3.3125 -6.46875 -5.28125q-3.671875 -1.984375 -8.59375 -1.984375q-6.1875 0 -10.109375 3.5q-3.921875 3.484375 -3.921875 8.640625q0 4.875 3.40625 7.96875q3.40625 3.078125 10.625 5.4375q4.234375 1.421875 8.640625 2.859375q4.421875 1.4375 7.859375 2.75q8.296875 3.203125 12.625 8.859375q4.328125 5.640625 4.328125 14.0q0 5.265625 -2.46875 10.203125q-2.453125 4.921875 -6.640625 8.1875q-4.578125 3.609375 -10.59375 5.546875q-6.015625 1.953125 -14.03125 1.953125zm115.88727 -2.171875l-34.484375 0l0 -4.1875q1.140625 -0.109375 2.6875 -0.28125q1.546875 -0.171875 2.296875 -0.578125q1.203125 -0.625 1.6875 -1.828125q0.484375 -1.203125 0.484375 -3.546875l0 -26.8125q0 -5.90625 -2.203125 -8.828125q-2.203125 -2.921875 -6.265625 -2.921875q-2.296875 0 -4.28125 0.6875q-1.96875 0.6875 -3.859375 2.0q-1.65625 1.15625 -2.671875 2.359375q-1.0 1.203125 -1.6875 2.109375l0 30.765625q0 2.125 0.515625 3.359375q0.515625 1.234375 1.953125 2.03125q0.859375 0.515625 2.265625 0.921875q1.40625 0.390625 2.71875 0.5625l0 4.1875l-34.828125 0l0 -4.1875q1.484375 -0.109375 2.890625 -0.28125q1.40625 -0.171875 2.484375 -0.578125q1.84375 -0.6875 2.5 -1.96875q0.65625 -1.296875 0.65625 -3.40625l0 -63.875q0 -1.84375 -0.859375 -3.90625q-0.859375 -2.0625 -2.40625 -3.09375q-1.140625 -0.734375 -3.328125 -1.15625q-2.171875 -0.4375 -3.890625 -0.56250024l0 -4.171875l28.46875 -1.5l0.859375 0.92187494l0 39.40625l0.234375 0q2.171875 -1.9375 3.921875 -3.515625q1.75 -1.578125 4.265625 -3.1875q2.125 -1.375 5.53125 -2.34375q3.40625 -0.96875 7.359375 -0.96875q9.28125 0 13.953125 5.328125q4.671875 5.328125 4.671875 14.03125l0 28.078125q0 2.109375 0.625 3.375q0.625 1.265625 2.34375 2.0q1.03125 0.46875 2.296875 0.8125q1.265625 0.34375 3.09375 0.5625l0 4.1875zm63.762085 -50.078125q4.234375 3.953125 6.46875 9.453125q2.234375 5.5 2.234375 11.921875q0 6.359375 -2.203125 12.0q-2.203125 5.640625 -6.4375 9.65625q-4.53125 4.296875 -10.8125 6.59375q-6.265625 2.28125 -14.34375 2.28125q-6.984375 0 -12.859375 -2.0q-5.875 -2.0 -10.390625 -6.015625q-4.359375 -3.84375 -6.890625 -9.484375q-2.515625 -5.640625 -2.515625 -12.625q0 -6.875 2.203125 -12.234375q2.21875 -5.359375 6.625 -9.546875q4.234375 -4.0 10.453125 -6.203125q6.21875 -2.21875 13.890625 -2.21875q8.03125 0 14.125 2.21875q6.109375 2.203125 10.453125 6.203125zm-14.65625 39.703125q1.25 -3.203125 1.84375 -7.78125q0.609375 -4.59375 0.609375 -10.65625q0 -4.015625 -0.578125 -9.171875q-0.5625 -5.15625 -1.703125 -8.140625q-1.375 -3.609375 -3.8125 -5.671875q-2.4375 -2.0625 -6.15625 -2.0625q-4.078125 0 -6.515625 2.234375q-2.421875 2.234375 -3.75 5.796875q-1.203125 3.265625 -1.65625 7.65625q-0.453125 4.375 -0.453125 9.125q0 6.25 0.390625 10.34375q0.40625 4.09375 1.953125 8.21875q1.3125 3.546875 3.78125 5.609375q2.46875 2.0625 6.25 2.0625q3.4375 0 5.890625 -1.90625q2.46875 -1.921875 3.90625 -5.65625zm100.527954 -17.53125q0 12.09375 -8.078125 20.75q-8.0625 8.640625 -20.4375 8.640625q-5.5 0 -8.9375 -1.125q-3.4375 -1.109375 -5.671875 -2.703125l-0.46875 0l0 16.09375q0 2.0 0.890625 3.484375q0.890625 1.5 2.5 2.1875q1.546875 0.625 4.375 1.140625q2.84375 0.515625 4.734375 0.640625l0 4.234375l-41.375 0l0 -4.234375q1.4375 -0.125 3.609375 -0.4375q2.1875 -0.3125 3.265625 -0.65625q1.84375 -0.625 2.5 -2.15625q0.65625 -1.515625 0.65625 -3.453125l0 -58.609375q-0.171875 -1.890625 -0.890625 -3.328125q-0.71875 -1.4375 -2.265625 -2.515625q-1.140625 -0.75 -3.03125 -1.234375q-1.890625 -0.484375 -3.71875 -0.65625l0 -4.1875l27.890625 -1.484375l0.859375 0.734375l0 6.359375l0.46875 0.125q3.78125 -3.84375 8.390625 -5.953125q4.609375 -2.125 9.140625 -2.125q11.84375 0 18.71875 8.390625q6.875 8.390625 6.875 22.078125zm-20.5625 0.234375q0 -4.296875 -0.625 -8.21875q-0.625 -3.921875 -2.234375 -7.015625q-1.546875 -3.09375 -4.09375 -4.921875q-2.546875 -1.84375 -6.21875 -1.84375q-3.71875 0 -5.953125 1.296875q-2.234375 1.28125 -3.90625 3.34375l0 32.484375q0.34375 1.140625 1.3125 2.953125q0.984375 1.796875 1.953125 2.890625q1.4375 1.546875 3.265625 2.296875q1.84375 0.734375 4.015625 0.734375q5.671875 0 9.078125 -6.09375q3.40625 -6.109375 3.40625 -17.90625z" fill-rule="nonzero"/></g></svg>